<?xml version="1.0" encoding="UTF-8" standalone="no"?>
<!-- Created with Inkscape (http://www.inkscape.org/) -->

<svg
      version="1.1"
      id="svg1"
      viewBox="0 0 133 133"
      preserveAspectRatio="xMidYMid meet"
      sodipodi:docname="rabbit.svg"
      inkscape:version="1.4.2 (f4327f4, 2025-05-13)"
      inkscape:export-filename="rabbit.svg"
      inkscape:export-xdpi="96"
      inkscape:export-ydpi="96"
      xmlns:inkscape="http://www.inkscape.org/namespaces/inkscape"
      xmlns:sodipodi="http://sodipodi.sourceforge.net/DTD/sodipodi-0.dtd"
      xmlns="http://www.w3.org/2000/svg"
      xmlns:svg="http://www.w3.org/2000/svg">
   <sodipodi:namedview
      id="namedview1"
      pagecolor="#505050"
      bordercolor="#eeeeee"
      borderopacity="1"
      inkscape:showpageshadow="0"
      inkscape:pageopacity="0"
      inkscape:pagecheckerboard="0"
      inkscape:deskcolor="#505050"
      inkscape:zoom="6.0525002"
      inkscape:cx="44.361832"
      inkscape:cy="66.336222"
      inkscape:window-width="1920"
      inkscape:window-height="1009"
      inkscape:window-x="-8"
      inkscape:window-y="-8"
      inkscape:window-maximized="1"
      inkscape:current-layer="svg1" />
   <defs
      id="defs1" />
   <path
      fill="currentColor"
      stroke="currentColor"
      stroke-width="1.1132"
      style="display:inline"
      d="M 0.82288704,117.19967 C 1.3427202,102.76091 1.8931581,100.16714 6.2567526,91.594236 11.776282,80.750324 21.341627,70.398244 31.256472,64.538322 34.978951,62.33825 46.780146,57.856028 57.481353,54.577828 68.182571,51.299631 77.198039,48.411047 77.51572,48.158759 77.833403,47.906467 76.289737,45.715743 74.085357,43.290477 69.345232,38.07541 66.428624,29.148134 67.805604,24.069151 c 0.540345,-1.993075 0.733652,-3.61819 0.429552,-3.611363 -0.304088,0.007 -9.230246,0.965219 -19.835887,2.129758 C 21.506915,25.540416 21.169256,25.512927 15.078248,19.874134 10.467323,15.605546 9.833281,14.126872 9.833281,7.642214 V 0.2658591 L 57.26944,0.71589404 C 103.37902,1.153348 104.91043,1.259309 112.02904,4.50472 c 13.50285,6.156045 21.21542,17.797002 21.21542,32.021526 0,5.168199 -0.9006,7.359298 -4.48482,10.911347 -2.46663,2.444505 -6.63178,4.842071 -9.25584,5.32792 l -4.77101,0.883359 v 27.406991 27.407007 l 9.25583,4.09543 9.25584,4.09544 v 8.30605 8.30608 H 110.32861 87.412747 l -0.887544,-9.80055 C 84.492575,101.02019 67.665113,83.825589 44.928329,80.960882 l -7.327534,-0.923228 v 9.180613 9.180623 l 7.181537,1.77816 c 12.971374,3.21174 22.094982,14.94518 22.120006,28.44746 l 0.0079,4.64136 H 33.577698 0.24445804 Z M 102.65585,33.79106 c 5.85769,-4.907555 1.32314,-16.201898 -6.504864,-16.201898 -4.072591,0 -10.72836,6.161616 -10.72836,9.931839 0,7.112217 11.314428,11.228809 17.233224,6.270059 z"
      id="path2" />
</svg>
